<?xml version="1.0" encoding="UTF-8" standalone="no"?>
<!-- Created with Inkscape (http://www.inkscape.org/) -->

<svg
   xmlns:dc="http://purl.org/dc/elements/1.1/"
   xmlns:cc="http://creativecommons.org/ns#"
   xmlns:rdf="http://www.w3.org/1999/02/22-rdf-syntax-ns#"
   xmlns:svg="http://www.w3.org/2000/svg"
   xmlns="http://www.w3.org/2000/svg"
   xmlns:sodipodi="http://sodipodi.sourceforge.net/DTD/sodipodi-0.dtd"
   xmlns:inkscape="http://www.inkscape.org/namespaces/inkscape"
   height="297mm"
   width="210mm"
   viewBox="0 0 744.09448819 1052.3622047"
   id="svg2"
   version="1.1"
   inkscape:version="0.91 r13725"
   sodipodi:docname="drawing.svg">
  <defs
     id="defs8" />
  <sodipodi:namedview
     pagecolor="#ffffff"
     bordercolor="#666666"
     borderopacity="1"
     objecttolerance="10"
     gridtolerance="10"
     guidetolerance="10"
     inkscape:pageopacity="0"
     inkscape:pageshadow="2"
     inkscape:window-width="1855"
     inkscape:window-height="1056"
     id="namedview6"
     showgrid="false"
     inkscape:snap-grids="true"
     inkscape:snap-to-guides="true"
     inkscape:zoom="0.63429568"
     inkscape:cx="-380.32263"
     inkscape:cy="638.73496"
     inkscape:window-x="65"
     inkscape:window-y="24"
     inkscape:window-maximized="1"
     inkscape:current-layer="text3140" />
  <metadata
     id="metadata4">
    <rdf:RDF>
      <cc:Work
         rdf:about="">
        <dc:format>image/svg+xml</dc:format>
        <dc:type
           rdf:resource="http://purl.org/dc/dcmitype/StillImage" />
        <dc:title></dc:title>
      </cc:Work>
    </rdf:RDF>
  </metadata>
  <g
     style="font-style:normal;font-weight:normal;font-size:370.15621948px;line-height:125%;font-family:sans-serif;letter-spacing:0px;word-spacing:0px;fill:#000000;fill-opacity:1;stroke:none;stroke-width:1px;stroke-linecap:butt;stroke-linejoin:miter;stroke-opacity:1"
     id="text3140">
    <path
       d="M 107.94922 10.767578 C 100.7196 10.767578 94.730469 16.756718 94.730469 23.986328 C 94.730469 31.215948 100.7196 37.207031 107.94922 37.207031 L 121.16992 37.207031 L 121.16992 119.625 L 17.269531 283.42578 C 1.7775013 308.00647 12.726552 328.04297 41.851562 328.04297 L 279.80859 328.04297 C 308.9336 328.04297 319.8807 308.00647 304.38867 283.42578 L 200.48828 119.625 L 200.48828 37.207031 L 213.70898 37.207031 C 220.93859 37.207031 226.92969 31.215948 226.92969 23.986328 C 226.92969 16.756718 220.93859 10.767578 213.70898 10.767578 L 107.94922 10.767578 z M 147.60938 37.207031 L 174.04883 37.207031 L 174.04883 119.625 L 174.04883 127.26758 L 178.18164 133.66992 L 234.36523 222.28516 L 87.294922 222.28516 L 143.47852 133.66992 L 147.60938 127.26758 L 147.60938 119.625 L 147.60938 37.207031 z M 207.02734 248.00781 C 208.85563 250.68495 210.87909 254.2774 211.92383 256.69336 L 207.54883 259.04297 L 219.17188 259.04297 L 219.17188 265.18164 L 193.9668 265.18164 L 193.9668 259.04297 L 205.26367 259.04297 C 204.28423 256.56172 202.52134 253.29766 201.01953 250.81641 L 207.02734 248.00781 z M 154.91992 248.33594 L 162.95117 248.33594 L 162.95117 253.68945 L 188.08984 253.68945 L 188.08984 260.9375 L 162.95117 260.9375 L 162.95117 264.6582 L 182.86719 264.6582 L 182.86719 289.60156 L 168.82812 289.60156 C 174.37829 294.69466 182.34558 299.33041 189.91992 301.87695 C 188.09163 303.44406 185.60977 306.57934 184.36914 308.60352 C 176.7295 305.40401 168.89311 299.78769 162.95117 293.38867 L 162.95117 309.25586 L 154.91992 309.25586 L 154.91992 293.71484 C 149.10857 299.98327 141.40358 305.27315 133.89453 308.47266 C 132.65391 306.57907 130.23871 303.51046 128.54102 301.94336 C 135.98477 299.39681 143.6898 294.75995 149.10938 289.60156 L 135.91992 289.60156 L 135.91992 264.6582 L 154.91992 264.6582 L 154.91992 260.9375 L 130.36914 260.9375 L 130.36914 253.68945 L 154.91992 253.68945 L 154.91992 248.33594 z M 219.69336 250.68555 L 253.19141 250.68555 L 253.19141 257.08398 L 236.67188 257.08398 C 236.41069 258.65109 236.14875 260.28361 235.82227 261.91602 L 249.33789 261.91602 L 249.33789 275.36719 L 254.88867 275.36719 L 254.88867 281.76758 L 218.0625 281.76758 L 218.0625 275.36719 L 225.83203 275.36719 C 226.22381 273.21242 226.74605 270.79739 227.20312 268.18555 L 221.32617 268.18555 L 221.32617 261.91602 L 228.3125 261.91602 C 228.57368 260.28361 228.77007 258.65109 229.03125 257.08398 L 219.69336 257.08398 L 219.69336 250.68555 z M 66.771484 251.01172 L 91.386719 251.01172 L 91.386719 273.21289 L 74.474609 273.21289 L 74.474609 309.125 L 66.771484 309.125 L 66.771484 251.01172 z M 95.5 251.01172 L 120.83594 251.01172 L 120.83594 300.44141 C 120.83594 304.03269 120.37938 306.31713 118.22461 307.62305 C 116.26573 308.92897 113.45794 309.125 109.60547 309.125 C 109.47488 307.88437 109.14737 306.05623 108.625 304.42383 L 105.09961 306.12109 C 104.83843 305.27224 104.44731 304.35919 103.99023 303.31445 C 94.783489 304.03271 85.313961 304.55549 78.392578 304.94727 L 77.871094 298.74414 C 81.397081 298.61355 85.706886 298.35214 90.408203 298.15625 L 90.408203 292.93164 L 79.373047 292.93164 L 79.373047 278.37109 L 90.408203 278.37109 L 90.408203 274.0625 L 96.742188 274.0625 L 96.742188 278.37109 L 108.23438 278.37109 L 108.23438 292.93164 L 104.9043 292.93164 C 106.73259 295.47819 108.62545 298.61303 109.80078 301.35547 C 110.84552 301.35547 111.69416 301.35631 112.08594 301.29102 C 112.80419 301.29102 113 301.0288 113 300.31055 L 113 273.21289 L 95.5 273.21289 L 95.5 251.01172 z M 74.474609 256.43164 L 74.474609 259.63086 L 84.138672 259.63086 L 84.138672 256.43164 L 74.474609 256.43164 z M 102.94531 256.43164 L 102.94531 259.63086 L 113 259.63086 L 113 256.43164 L 102.94531 256.43164 z M 74.474609 264.5293 L 74.474609 267.79297 L 84.138672 267.79297 L 84.138672 264.5293 L 74.474609 264.5293 z M 102.94531 264.5293 L 102.94531 267.79297 L 113 267.79297 L 113 264.5293 L 102.94531 264.5293 z M 196.83984 268.11914 L 216.82031 268.11914 L 216.82031 273.99609 L 196.83984 273.99609 L 196.83984 268.11914 z M 234.71289 268.18555 C 234.25582 270.79739 233.73246 273.21242 233.27539 275.36719 L 242.15625 275.36719 L 242.15625 268.18555 L 234.71289 268.18555 z M 143.42773 270.4707 L 143.42773 274.32227 L 154.91992 274.32227 L 154.91992 270.4707 L 143.42773 270.4707 z M 162.95117 270.4707 L 162.95117 274.32227 L 174.9668 274.32227 L 174.9668 270.4707 L 162.95117 270.4707 z M 196.83984 276.93555 L 216.82031 276.93555 L 216.82031 282.74609 L 196.83984 282.74609 L 196.83984 276.93555 z M 143.42773 279.80859 L 143.42773 283.79102 L 154.91992 283.79102 L 154.91992 279.80859 L 143.42773 279.80859 z M 162.95117 279.80859 L 162.95117 283.79102 L 174.9668 283.79102 L 174.9668 279.80859 L 162.95117 279.80859 z M 85.183594 283.33398 L 85.183594 287.83984 L 90.408203 287.83984 L 90.408203 283.33398 L 85.183594 283.33398 z M 96.742188 283.33398 L 96.742188 287.83984 L 102.0957 287.83984 L 102.0957 283.33398 L 96.742188 283.33398 z M 221.32617 284.83594 L 251.36328 284.83594 L 251.36328 309.125 L 243.78906 309.125 L 243.78906 306.9707 L 228.57422 306.9707 L 228.57422 309.32227 L 221.32617 309.32227 L 221.32617 284.83594 z M 196.70898 285.88086 L 217.27734 285.88086 L 217.27734 305.66406 L 203.24023 305.66406 L 203.24023 308.4082 L 196.70898 308.4082 L 196.70898 285.88086 z M 228.57422 291.49609 L 228.57422 300.31055 L 243.78906 300.31055 L 243.78906 291.49609 L 228.57422 291.49609 z M 203.24023 292.08398 L 203.24023 299.39648 L 210.55273 299.39648 L 210.55273 292.08398 L 203.24023 292.08398 z M 96.742188 292.93164 L 96.742188 297.83008 L 101.11719 297.56836 C 100.59482 296.65421 100.00674 295.74058 99.484375 294.95703 L 104.11914 292.93164 L 96.742188 292.93164 z "
       id="path3145"
       inkscape:export-xdpi="90"
       inkscape:export-ydpi="90"
       style="fill:#37abc8" />
    <text
       xml:space="preserve"
       style="font-style:normal;font-variant:normal;font-weight:bold;font-stretch:normal;font-size:46.34786606px;line-height:125%;font-family:Lato;-inkscape-font-specification:'Lato Bold';letter-spacing:0px;word-spacing:0px;fill:#37abc8;fill-opacity:1;stroke:none;stroke-width:1px;stroke-linecap:butt;stroke-linejoin:miter;stroke-opacity:1"
       x="24.722654"
       y="380.73792"
       id="text3166"
       sodipodi:linespacing="125%"><tspan
         sodipodi:role="line"
         id="tspan3168"
         x="24.722654"
         y="380.73792"
         style="font-style:normal;font-variant:normal;font-weight:bold;font-stretch:normal;font-family:Lato;-inkscape-font-specification:'Lato Bold';fill:#37abc8">Mindong Lab</tspan></text>
  </g>
</svg>
